<svg width="100" height="100" viewBox="0 0 100 100" fill="none" xmlns="http://www.w3.org/2000/svg">
<path d="M24.3757 71.2499C27.9173 68.5416 31.8757 66.4062 36.2507 64.8437C40.6257 63.2812 45.209 62.4999 50.0006 62.4999C54.7923 62.4999 59.3756 63.2812 63.7506 64.8437C68.1256 66.4062 72.084 68.5416 75.6256 71.2499C78.0562 68.4027 79.9486 65.1735 81.3027 61.5624C82.6569 57.9513 83.334 54.0971 83.334 49.9999C83.334 40.7638 80.0875 32.8992 73.5944 26.4062C67.1013 19.9131 59.2368 16.6666 50.0006 16.6666C40.7645 16.6666 32.9 19.9131 26.4069 26.4062C19.9138 32.8992 16.6673 40.7638 16.6673 49.9999C16.6673 54.0971 17.3444 57.9513 18.6986 61.5624C20.0527 65.1735 21.9451 68.4027 24.3757 71.2499ZM50.0006 54.1666C45.9034 54.1666 42.4486 52.7603 39.6361 49.9478C36.8236 47.1353 35.4173 43.6805 35.4173 39.5833C35.4173 35.486 36.8236 32.0312 39.6361 29.2187C42.4486 26.4062 45.9034 24.9999 50.0006 24.9999C54.0979 24.9999 57.5527 26.4062 60.3652 29.2187C63.1777 32.0312 64.584 35.486 64.584 39.5833C64.584 43.6805 63.1777 47.1353 60.3652 49.9478C57.5527 52.7603 54.0979 54.1666 50.0006 54.1666ZM50.0006 91.6666C44.2368 91.6666 38.8201 90.5728 33.7506 88.3853C28.6812 86.1978 24.2715 83.2291 20.5215 79.4791C16.7715 75.7291 13.8027 71.3194 11.6152 66.2499C9.42773 61.1805 8.33398 55.7638 8.33398 49.9999C8.33398 44.236 9.42773 38.8194 11.6152 33.7499C13.8027 28.6805 16.7715 24.2708 20.5215 20.5208C24.2715 16.7708 28.6812 13.802 33.7506 11.6145C38.8201 9.427 44.2368 8.33325 50.0006 8.33325C55.7645 8.33325 61.1812 9.427 66.2507 11.6145C71.3201 13.802 75.7298 16.7708 79.4798 20.5208C83.2298 24.2708 86.1986 28.6805 88.3861 33.7499C90.5736 38.8194 91.6673 44.236 91.6673 49.9999C91.6673 55.7638 90.5736 61.1805 88.3861 66.2499C86.1986 71.3194 83.2298 75.7291 79.4798 79.4791C75.7298 83.2291 71.3201 86.1978 66.2507 88.3853C61.1812 90.5728 55.7645 91.6666 50.0006 91.6666Z" fill="white"/>
</svg>
