<svg width="69" height="80" viewBox="0 0 69 80" fill="none" xmlns="http://www.w3.org/2000/svg">
<path d="M18.4414 0V27.1702H23.6628V5.22141H60.4741L48.7756 13.1364C47.4523 14.0312 46.6608 15.5253 46.6608 17.1212V61.8462H23.6628V44.0748H18.4414V67.0677H46.6608V78.1505C46.6608 78.8351 47.0394 79.4636 47.6436 79.7834C48.2478 80.1047 48.9808 80.0664 49.5481 79.6828L68.1916 67.0678V0H18.4414Z" fill="white"/>
<path d="M29.823 45.375C29.823 45.6631 29.9898 45.9256 30.2527 46.0469C30.5127 46.168 30.8211 46.1272 31.0405 45.9398L43.2348 35.6219L31.0405 25.3041C30.8211 25.1166 30.5127 25.0759 30.2527 25.1969C29.99 25.318 29.823 25.5806 29.823 25.8687V31.0862H0V40.1587H29.8231V45.375H29.823Z" fill="white"/>
</svg>
