<svg width="1103" height="1103" xmlns="http://www.w3.org/2000/svg" xmlns:xlink="http://www.w3.org/1999/xlink" xml:space="preserve" overflow="hidden"><defs><clipPath id="clip0"><rect x="1060" y="816" width="1103" height="1103"/></clipPath><linearGradient x1="1238" y1="951" x2="2007" y2="1720" gradientUnits="userSpaceOnUse" spreadMethod="reflect" id="fill1"><stop offset="0" stop-color="#E1DC0D"/><stop offset="0.51" stop-color="#E1DC0D"/><stop offset="0.52" stop-color="#ACA800"/><stop offset="1" stop-color="#5C5A00"/></linearGradient></defs><g clip-path="url(#clip0)" transform="translate(-1060 -816)"><path d="M1060 874.57C1060 842.223 1086.22 816 1118.57 816L2104.43 816C2136.78 816 2163 842.223 2163 874.57L2163 1860.43C2163 1892.78 2136.78 1919 2104.43 1919L1118.57 1919C1086.22 1919 1060 1892.78 1060 1860.43Z" fill="#ACA800" fill-rule="evenodd"/><path d="M1115 923.729C1115 894.607 1138.61 871 1167.73 871L2055.27 871C2084.39 871 2108 894.607 2108 923.729L2108 1811.27C2108 1840.39 2084.39 1864 2055.27 1864L1167.73 1864C1138.61 1864 1115 1840.39 1115 1811.27Z" fill="#FFFFFF" fill-rule="evenodd"/><path d="M1238 1244.73 1531.73 1244.73 1622.5 951 1713.27 1244.73 2007 1244.73 1769.36 1426.27 1860.13 1720 1622.5 1538.46 1384.87 1720 1475.64 1426.27Z" fill="url(#fill1)" fill-rule="evenodd"/><text font-family="Segoe UI Black,Segoe UI Black_MSFontService,sans-serif" font-weight="900" font-size="248" transform="matrix(1 0 0 1 1223.9 1260)">MOVIE</text><text font-family="Segoe UI Black,Segoe UI Black_MSFontService,sans-serif" font-weight="900" font-size="252" transform="matrix(1 0 0 1 1238.16 1648)">SCOPE</text></g></svg>