<svg width="35" height="34" viewBox="0 0 35 34" fill="none" xmlns="http://www.w3.org/2000/svg">
<path d="M28.014 29.5357L19.239 20.7607C18.5426 21.3179 17.7417 21.7589 16.8363 22.0839C15.931 22.4089 14.9676 22.5714 13.9461 22.5714C11.4158 22.5714 9.27427 21.6951 7.5216 19.9424C5.76892 18.1897 4.89258 16.0482 4.89258 13.5179C4.89258 10.9875 5.76892 8.84598 7.5216 7.0933C9.27427 5.34063 11.4158 4.46429 13.9461 4.46429C16.4765 4.46429 18.618 5.34063 20.3707 7.0933C22.1234 8.84598 22.9997 10.9875 22.9997 13.5179C22.9997 14.5393 22.8372 15.5027 22.5122 16.408C22.1872 17.3134 21.7461 18.1143 21.189 18.8107L29.964 27.5857L28.014 29.5357ZM13.9461 19.7857C15.6872 19.7857 17.1671 19.1763 18.3859 17.9576C19.6046 16.7388 20.214 15.2589 20.214 13.5179C20.214 11.7768 19.6046 10.2969 18.3859 9.07813C17.1671 7.85938 15.6872 7.25 13.9461 7.25C12.2051 7.25 10.7252 7.85938 9.50642 9.07813C8.28767 10.2969 7.67829 11.7768 7.67829 13.5179C7.67829 15.2589 8.28767 16.7388 9.50642 17.9576C10.7252 19.1763 12.2051 19.7857 13.9461 19.7857Z" fill="#49454F"/>
</svg>
